<?xml version="1.0" encoding="utf-8"?>
<!-- Generator: Adobe Illustrator 27.4.1, SVG Export Plug-In . SVG Version: 6.00 Build 0)  -->
<svg version="1.1" id="Layer_1" xmlns="http://www.w3.org/2000/svg" xmlns:xlink="http://www.w3.org/1999/xlink" x="0px" y="0px"
	 viewBox="0 0 3000 3000" style="enable-background:new 0 0 3000 3000;" xml:space="preserve">
<style type="text/css">
	.st0{fill:#E0FF99;}
</style>
<g>
	<path class="st0" d="M1286.6,2197.2c-1.4-4.8-5.1-8.5-9.8-10c-1.5-0.5-3.1-0.7-4.6-0.7c-3.3,0-6.5,1.1-9.2,3.1l-599,461.1
		l253.4-712.2c1.7-4.7,0.9-9.8-2-13.8c-2.8-3.9-7.3-6.2-12.1-6.2c-0.1,0-0.3,0-0.4,0l-755.6,20.9l623.6-427.2
		c4.1-2.8,6.5-7.4,6.5-12.4c0-4.9-2.4-9.6-6.5-12.4l-623.6-427.3l755.6,20.9c0.1,0,0.3,0,0.4,0c4.8,0,9.3-2.3,12.1-6.2
		c2.9-4,3.7-9.2,2-13.8L664,348.8l599,461.1c2.7,2,5.9,3.1,9.2,3.1c1.6,0,3.1-0.2,4.6-0.7c4.7-1.5,8.3-5.3,9.8-10l213.6-725.1
		l213.6,725.1c1.4,4.8,5.1,8.5,9.8,10c1.5,0.5,3.1,0.7,4.6,0.7c3.3,0,6.5-1.1,9.2-3.1l599-461.1L2083,1061c-1.7,4.7-0.9,9.8,2,13.8
		c2.8,3.9,7.3,6.2,12.1,6.2c0.1,0,0.3,0,0.4,0l755.6-20.9l-623.6,427.2c-4.1,2.8-6.5,7.4-6.5,12.4c0,4.9,2.4,9.6,6.5,12.4
		l623.6,427.2l-755.6-20.9c-0.1,0-0.3,0-0.4,0c-4.8,0-9.3,2.3-12.1,6.2c-2.9,4-3.7,9.2-2,13.8l253.4,712.2l-599-461.1
		c-2.7-2-5.9-3.1-9.2-3.1c-1.6,0-3.1,0.2-4.6,0.7c-4.7,1.5-8.3,5.3-9.8,10l-213.6,725.1L1286.6,2197.2z"/>
	<path d="M1500.2,130.2l199.2,676.3c2.8,9.5,10.1,17,19.5,20c3,1,6.2,1.5,9.3,1.5c6.5,0,13-2.1,18.3-6.2l558.7-430l-236.3,664.2
		c-3.3,9.3-1.8,19.7,4,27.7c5.6,7.8,14.7,12.4,24.3,12.4c0.3,0,0.6,0,0.8,0l704.7-19.5l-581.6,398.5c-8.2,5.6-13,14.8-13,24.8
		s4.9,19.2,13,24.8l581.6,398.4l-704.7-19.5c-0.3,0-0.6,0-0.8,0c-9.6,0-18.6,4.6-24.3,12.4c-5.8,8-7.3,18.4-4,27.7l236.3,664.2
		l-558.7-430c-5.3-4.1-11.8-6.2-18.3-6.2c-3.1,0-6.2,0.5-9.3,1.5c-9.4,3.1-16.7,10.6-19.5,20.1l-199.2,676.3l-199.2-676.3
		c-2.8-9.5-10.1-17-19.5-20.1c-3-1-6.2-1.5-9.3-1.5c-6.5,0-13,2.1-18.3,6.2l-558.7,430l236.3-664.2c3.3-9.3,1.8-19.7-4-27.7
		c-5.7-7.8-14.7-12.4-24.3-12.4c-0.3,0-0.5,0-0.8,0l-704.7,19.5l581.6-398.5c8.2-5.6,13-14.8,13-24.8s-4.9-19.2-13-24.8
		l-581.6-398.4l704.7,19.5c0.3,0,0.5,0,0.8,0c9.6,0,18.6-4.6,24.3-12.4c5.8-8,7.3-18.4,4-27.7L695.2,391.7l558.7,430
		c5.3,4.1,11.8,6.2,18.3,6.2c3.1,0,6.2-0.5,9.3-1.5c9.4-3.1,16.7-10.6,19.5-20L1500.2,130.2 M1500.2,24l-228,774L632.8,305.8
		L903.2,1066l-806.5-22.3l665.6,456l-665.6,456l806.5-22.3l-270.5,760.2l639.4-492.1l228,773.9l228-773.9l639.4,492.1l-270.5-760.2
		l806.5,22.3l-665.6-456l665.6-456l-806.5,22.3l270.5-760.2L1728.2,798L1500.2,24L1500.2,24z M2367.6,305.8L2367.6,305.8
		L2367.6,305.8z M2903.6,1043.7L2903.6,1043.7L2903.6,1043.7z"/>
</g>
</svg>
