<?xml version="1.0" encoding="utf-8"?>
<!-- Generator: Adobe Illustrator 27.4.1, SVG Export Plug-In . SVG Version: 6.00 Build 0)  -->
<svg version="1.1" id="Layer_1" xmlns="http://www.w3.org/2000/svg" xmlns:xlink="http://www.w3.org/1999/xlink" x="0px" y="0px"
	 viewBox="0 0 2810 2752" style="enable-background:new 0 0 2810 2752;" xml:space="preserve">
<style type="text/css">
	.st0{fill:#E0FF99;}
</style>
<path class="st0" d="M1434,2737c-129.8,0-258.3-18.2-381.7-54.3c-119.6-34.9-233.9-86.2-339.8-152.6c-2.4-1.5-5.2-2.3-8-2.3
	c-1.1,0-2.1,0.1-3.2,0.3L72.1,2665c-3.4,0.7-6.9,1.1-10.3,1.1c-14.7,0-28.9-7.3-37.7-19.4c-8.9-12.2-11.4-27.5-6.7-41.9L214,1989.6
	c1.2-3.7,0.9-7.7-0.8-11.2c-45.4-91.7-80.3-188.7-103.8-288.2C85.2,1587.9,73,1482.2,73,1376c0-183.7,36-362,106.9-529.8
	c34.1-80.6,76.3-158.4,125.5-231.2C354.1,543,410,475.2,471.6,413.6C533.2,352,600.9,296.1,673,247.4
	c72.8-49.1,150.5-91.4,231.2-125.5C1072,51,1250.2,15,1434,15l0,0c183.9,0,362.2,36,530,106.9c80.7,34.1,158.4,76.3,231.2,125.4
	c72.1,48.7,139.8,104.6,201.4,166.1s117.5,129.3,166.1,201.4c49.1,72.8,91.3,150.5,125.4,231.2c70.9,167.8,106.9,346.1,106.9,530
	c0,183.7-36,362-106.9,529.8c-34.1,80.6-76.3,158.4-125.5,231.2c-48.7,72.1-104.6,139.8-166.2,201.4
	c-61.6,61.6-129.4,117.5-201.4,166.2c-72.8,49.1-150.5,91.4-231.2,125.5C1795.9,2701,1617.7,2737,1434,2737L1434,2737z"/>
<path d="M1433.9,0v30c91.4,0,182.8,9.2,271.5,27.3c86.5,17.7,171.5,44,252.7,78.4c79.8,33.7,156.7,75.4,228.6,124
	C2258,307.9,2325,363.1,2385.9,424c60.9,60.9,116.2,127.9,164.3,199.2c48.6,72,90.3,148.9,124,228.6
	c34.3,81.2,60.7,166.2,78.4,252.7c18.1,88.7,27.3,180.1,27.3,271.5s-9.2,182.6-27.3,271.3c-17.7,86.4-44.1,171.4-78.4,252.6
	c-33.7,79.8-75.5,156.7-124.1,228.6c-48.2,71.3-103.5,138.3-164.4,199.2s-127.9,116.2-199.2,164.4c-72,48.6-148.9,90.4-228.6,124.1
	c-81.2,34.4-166.2,60.7-252.6,78.4c-88.7,18.2-180,27.4-271.3,27.4c-128.4,0-255.5-18-377.5-53.7
	c-118.3-34.5-231.3-85.2-336.1-150.9c-4.8-3-10.3-4.6-15.9-4.6c-2.1,0-4.3,0.2-6.4,0.7L68.9,2650.4c-2.4,0.5-4.8,0.8-7.1,0.8
	c-10,0-19.5-5-25.6-13.3c-3.6-4.9-8.9-15.1-4.6-28.5l196.7-615.1c2.4-7.4,1.8-15.5-1.7-22.4c-44.8-90.7-79.4-186.6-102.6-285
	C100.1,1585.6,87.9,1481,87.9,1376c0-91.4,9.2-182.6,27.4-271.3c17.7-86.4,44.1-171.4,78.4-252.6c33.7-79.8,75.5-156.7,124.1-228.6
	c48.2-71.3,103.5-138.3,164.4-199.2S610.1,308,681.4,259.9c72-48.6,148.9-90.4,228.6-124.1c81.2-34.3,166.2-60.7,252.6-78.4
	c88.7-18.1,180-27.3,271.3-27.3L1433.9,0 M1434,0L1434,0C674,0,58,616.1,58,1376c0,218.7,51,425.4,141.8,609L3,2600.2
	c-13.1,41,18.2,81,58.8,81c4.4,0,8.9-0.5,13.5-1.5l629.2-136.8C915.9,2675.4,1166,2752,1434,2752c759.9,0,1376-616.1,1376-1376
	C2810,615.5,2194.4,0,1434,0L1434,0z"/>
</svg>
