<?xml version="1.0" encoding="utf-8"?>
<!-- Generator: Adobe Illustrator 27.4.1, SVG Export Plug-In . SVG Version: 6.00 Build 0)  -->
<svg version="1.1" id="Layer_1" xmlns="http://www.w3.org/2000/svg" xmlns:xlink="http://www.w3.org/1999/xlink" x="0px" y="0px"
	 viewBox="0 0 800 800" style="enable-background:new 0 0 800 800;" xml:space="preserve">
<style type="text/css">
	.st0{fill:#FF7017;}
</style>
<path class="st0" d="M311.7,562.7c0,2.3-2.3,4-5.7,4c-3.3,0-6,0-6-4s2.7-4,5.7-4C308.7,558.7,311.7,560.3,311.7,562.7z M278.3,557.7
	c0,2.3,0,5,4.7,5.7c1.2,0.6,2.6,0.7,3.8,0.2c1.2-0.4,2.3-1.4,2.9-2.5c0-2.3,0-4.7-4.7-5.7C280.3,554.3,279,555.3,278.3,557.7z
	 M325.7,556c-3,0-5,2.7-4.7,5.3c0.3,2.7,3,3.7,6.3,3c3.3-0.7,5-3,4.7-5.3C331.7,556.7,329,555.7,325.7,556z M396.7,133.3
	c-35.2-0.3-70,6.4-102.5,19.9c-32.5,13.5-61.9,33.4-86.5,58.5c-24.6,25.1-43.9,55-56.6,87.7c-12.8,32.8-18.8,67.7-17.7,102.9
	c-0.9,57.6,16.1,114,48.8,161.4s79.4,83.4,133.5,103c13.7,2.3,18.7-6.3,18.7-13.3s0-44.7,0-66.7c0,0-75.3,16.7-91.3-33.3
	c0,0-12-33.3-29.7-40.3c0,0-24.7-17.3,1.7-17c8.6,1.2,16.9,4.3,24,9.3c7.2,4.9,13.1,11.5,17.3,19.1c3.5,6.8,8.3,12.9,14.2,17.8
	c5.9,4.9,12.8,8.5,20.1,10.7c7.4,2.2,15.1,2.8,22.7,1.8c7.6-0.9,15-3.4,21.6-7.3c1.3-13.9,7.3-27,17-37c-60-7-120.7-15.7-120.7-122
	c-0.6-12,1.3-24,5.7-35.2c4.4-11.2,11.1-21.4,19.7-29.8c-8.1-24.4-7.2-50.9,2.7-74.7c22.7-7.3,74.3,29.7,74.3,29.7
	c44.1-12.4,90.9-12.4,135,0c0,0,51.7-37,74.3-29.7c10,23.7,11,50.3,2.7,74.7c8.9,8.3,16,18.4,20.7,29.6c4.8,11.2,7.1,23.3,6.9,35.4
	c0,106.7-63.3,115-123.3,122c6,6.8,10.6,14.7,13.5,23.3c2.9,8.6,3.9,17.7,3.2,26.7c0,37.3,0,83.3,0,92.3c0,2.2,0.5,4.5,1.5,6.5
	c1,2,2.5,3.7,4.3,5c1.8,1.3,4,2.2,6.2,2.5c2.2,0.3,4.5,0.1,6.6-0.7c54-19.4,100.6-55.3,133.2-102.6c32.5-47.3,49.4-103.6,48.2-161.1
	c0.3-35.5-6.5-70.7-19.9-103.5c-13.5-32.8-33.4-62.7-58.5-87.7c-25.1-25.1-55-44.8-87.9-58.2C467.4,139.5,432.2,132.9,396.7,133.3z
	 M238,513.7c0,0,0,3.7,0,5.7c0.4,0.4,0.8,0.7,1.3,0.9c0.5,0.2,1,0.3,1.5,0.3c0.5,0,1-0.1,1.5-0.3c0.5-0.2,0.9-0.5,1.3-0.9
	c0,0,0-3.7,0-6C243.7,511,239.3,512.3,238,513.7z M226.3,504.7c0,0,0,3.3,2.3,4.3c0.3,0.4,0.6,0.6,1,0.8c0.4,0.2,0.8,0.3,1.3,0.3
	c0.4,0,0.9-0.1,1.3-0.3c0.4-0.2,0.8-0.5,1-0.8c0,0,0-3.3-2.3-4.3C228.7,503.7,227,503.7,226.3,504.7z M259.7,544c0,0,0,4.7,0,7
	c0,2.3,5.7,2.7,7,0c1.3-2.7,0-4.7,0-7c0-2.3-4.3-1.7-5.7,0H259.7z M247.3,527.7c0,0,0,4,0,6.7s4.7,3.7,6.3,2.7
	c0.8-1,1.3-2.2,1.3-3.5c0-1.3-0.5-2.5-1.3-3.5C252,527.3,249.3,526.3,247.3,527.7z"/>
</svg>
