<?xml version="1.0" encoding="UTF-8"?>
<svg id="Layer_1" data-name="Layer 1" xmlns="http://www.w3.org/2000/svg" viewBox="0 0 2809.96 2752">
  <defs>
    <style>
      .cls-1 {
        fill: #ff7017;
      }
    </style>
  </defs>
  <path class="cls-1" d="m1376,2737c-183.74,0-361.98-35.98-529.76-106.95-80.64-34.11-158.42-76.33-231.18-125.48-72.07-48.69-139.84-104.61-201.43-166.2-61.59-61.59-117.51-129.36-166.2-201.43-49.15-72.76-91.37-150.54-125.48-231.18C50.98,1737.98,15,1559.74,15,1376c0-183.87,35.96-362.18,106.88-529.97,34.09-80.65,76.29-158.44,125.42-231.19,48.67-72.06,104.57-139.83,166.15-201.4s129.34-117.47,201.4-166.14c72.75-49.13,150.53-91.33,231.19-125.42C1013.83,50.96,1192.13,15,1376,15h0c183.74,0,361.98,35.98,529.76,106.95,80.64,34.11,158.42,76.33,231.18,125.48,72.07,48.69,139.84,104.61,201.43,166.2,61.59,61.59,117.51,129.36,166.2,201.44,49.15,72.76,91.37,150.54,125.48,231.18,70.97,167.78,106.95,346.02,106.95,529.76,0,106.16-12.26,211.89-36.45,314.23-23.51,99.49-58.43,196.44-103.79,288.17-1.72,3.49-2.03,7.51-.84,11.22l196.73,615.12c4.63,14.47,2.17,29.76-6.73,41.95-8.89,12.18-23,19.45-37.74,19.45-3.41,0-6.87-.38-10.31-1.12l-629.17-136.77c-1.05-.23-2.12-.34-3.19-.34-2.8,0-5.56.78-7.96,2.29-105.89,66.34-220.22,117.67-339.81,152.55-123.46,36.01-251.89,54.26-381.74,54.26Z"/>
  <path d="m1376,0v30c91.34,0,182.62,9.2,271.3,27.35,86.41,17.68,171.4,44.07,252.62,78.42,79.75,33.73,156.67,75.48,228.63,124.1,71.28,48.16,138.31,103.46,199.23,164.38,60.92,60.92,116.22,127.95,164.38,199.23,48.61,71.96,90.36,148.88,124.1,228.63,34.35,81.22,60.74,166.21,78.42,252.62,18.15,88.68,27.35,179.95,27.35,271.3,0,105-12.13,209.57-36.05,310.78-23.25,98.38-57.78,194.26-102.63,284.97-3.45,6.98-4.05,15.02-1.68,22.44l196.73,615.12c4.31,13.49-1,23.67-4.55,28.54-6.08,8.32-15.66,13.29-25.63,13.29-2.34,0-4.73-.26-7.12-.78l-629.16-136.77c-2.11-.46-4.25-.68-6.37-.68-5.59,0-11.12,1.56-15.93,4.58-104.72,65.61-217.78,116.37-336.05,150.86-122.09,35.61-249.11,53.66-377.54,53.66-91.34,0-182.62-9.2-271.3-27.35-86.41-17.68-171.4-44.06-252.62-78.42-79.75-33.73-156.67-75.48-228.63-124.1-71.28-48.16-138.31-103.46-199.23-164.38-60.92-60.92-116.22-127.95-164.38-199.23-48.61-71.96-90.36-148.88-124.1-228.63-34.35-81.22-60.74-166.21-78.42-252.62-18.15-88.68-27.35-179.95-27.35-271.3s9.19-182.75,27.33-271.46c17.67-86.45,44.04-171.46,78.37-252.69,33.71-79.76,75.44-156.68,124.03-228.63,48.13-71.27,103.42-138.29,164.31-199.19,60.9-60.9,127.91-116.18,199.19-164.31,71.95-48.59,148.87-90.32,228.63-124.03,81.23-34.33,166.24-60.7,252.69-78.37,88.71-18.13,180.04-27.33,271.46-27.33V0m0,0C615.52,0,0,615.52,0,1376c0,759.94,616.06,1376,1376,1376,267.97,0,518.04-76.6,729.52-209.1l629.16,136.77c4.58.99,9.09,1.47,13.49,1.47,40.51,0,71.88-39.95,58.76-80.97l-196.73-615.12c90.78-183.6,141.79-390.37,141.79-609.05C2752,616.06,2135.94,0,1376,0h0Z"/>
</svg>