<?xml version="1.0" encoding="utf-8"?>
<!-- Generator: Adobe Illustrator 27.4.1, SVG Export Plug-In . SVG Version: 6.00 Build 0)  -->
<svg version="1.1" id="Layer_1" xmlns="http://www.w3.org/2000/svg" xmlns:xlink="http://www.w3.org/1999/xlink" x="0px" y="0px"
	 viewBox="0 0 3000 3000" style="enable-background:new 0 0 3000 3000;" xml:space="preserve">
<style type="text/css">
	.st0{fill:#FF7017;}
</style>
<g>
	<path class="st0" d="M1286.56,2197.17c-1.4-4.75-5.05-8.5-9.75-10.03c-1.52-0.49-3.08-0.73-4.63-0.73c-3.27,0-6.49,1.07-9.15,3.11
		l-599.03,461.07l253.39-712.19c1.66-4.66,0.91-9.84-2-13.84c-2.83-3.89-7.34-6.18-12.13-6.18c-0.14,0-0.28,0-0.42,0.01
		l-755.63,20.91l623.61-427.23c4.08-2.8,6.52-7.43,6.52-12.37c0-4.95-2.44-9.58-6.52-12.37L147.2,1060.07l755.63,20.91
		c0.14,0,0.28,0.01,0.42,0.01c4.79,0,9.31-2.29,12.13-6.18c2.91-4,3.66-9.18,2-13.84L663.99,348.77l599.03,461.07
		c2.66,2.04,5.88,3.11,9.15,3.11c1.55,0,3.12-0.24,4.63-0.73c4.71-1.53,8.35-5.28,9.75-10.03l213.62-725.11l213.62,725.11
		c1.4,4.75,5.05,8.5,9.75,10.03c1.52,0.49,3.08,0.73,4.63,0.73c3.27,0,6.49-1.07,9.15-3.11l599.03-461.07l-253.39,712.19
		c-1.66,4.66-0.91,9.84,2,13.84c2.83,3.89,7.34,6.18,12.13,6.18c0.14,0,0.28,0,0.42-0.01l755.63-20.91l-623.61,427.23
		c-4.08,2.8-6.52,7.43-6.52,12.37c0,4.95,2.44,9.58,6.52,12.37l623.61,427.23l-755.63-20.91c-0.14,0-0.28-0.01-0.42-0.01
		c-4.79,0-9.31,2.29-12.13,6.18c-2.91,4-3.66,9.18-2,13.84l253.39,712.19l-599.03-461.07c-2.66-2.04-5.88-3.11-9.15-3.11
		c-1.55,0-3.12,0.24-4.63,0.73c-4.71,1.53-8.35,5.28-9.75,10.03l-213.62,725.11L1286.56,2197.17z"/>
	<path d="M1500.17,130.16l199.23,676.27c2.8,9.49,10.09,17,19.51,20.05c3.03,0.99,6.16,1.47,9.27,1.47c6.53,0,12.99-2.14,18.3-6.23
		l558.68-430.01l-236.32,664.22c-3.32,9.32-1.82,19.68,3.99,27.69c5.65,7.78,14.68,12.37,24.27,12.37c0.28,0,0.55,0,0.83-0.01
		l704.73-19.5l-581.6,398.45c-8.16,5.59-13.04,14.85-13.04,24.75s4.88,19.16,13.04,24.75l581.6,398.45l-704.73-19.5
		c-0.28-0.01-0.55-0.01-0.83-0.01c-9.59,0-18.62,4.58-24.27,12.37c-5.82,8.01-7.31,18.37-3.99,27.69l236.32,664.22l-558.68-430.01
		c-5.31-4.09-11.77-6.23-18.3-6.23c-3.11,0-6.23,0.48-9.27,1.47c-9.41,3.06-16.71,10.56-19.51,20.05l-199.23,676.27l-199.23-676.27
		c-2.8-9.49-10.09-17-19.51-20.05c-3.03-0.99-6.16-1.47-9.27-1.47c-6.53,0-12.99,2.14-18.3,6.23l-558.68,430.01l236.32-664.22
		c3.32-9.32,1.82-19.68-3.99-27.69c-5.65-7.78-14.68-12.37-24.27-12.37c-0.28,0-0.55,0-0.83,0.01l-704.73,19.5l581.6-398.45
		c8.16-5.59,13.04-14.85,13.04-24.75s-4.88-19.16-13.04-24.75l-581.6-398.45l704.73,19.5c0.28,0.01,0.55,0.01,0.83,0.01
		c9.59,0,18.62-4.58,24.27-12.37c5.82-8.01,7.31-18.37,3.99-27.69L695.19,391.72l558.68,430.01c5.32,4.09,11.77,6.23,18.3,6.23
		c3.11,0,6.23-0.48,9.27-1.47c9.41-3.06,16.71-10.56,19.51-20.05L1500.17,130.16 M1500.17,24l-228.01,773.95L632.79,305.83
		l270.46,760.16l-806.53-22.32l665.61,456.01L96.72,1955.69l806.53-22.32l-270.46,760.16l639.38-492.12l228.01,773.95l228-773.95
		l639.38,492.12l-270.46-760.16l806.53,22.32l-665.61-456.01l665.61-456.01l-806.53,22.32l270.46-760.16l-639.38,492.12L1500.17,24
		L1500.17,24z M2367.55,305.83L2367.55,305.83L2367.55,305.83z M2903.62,1043.67L2903.62,1043.67L2903.62,1043.67z"/>
</g>
</svg>
